<?xml version="1.0" encoding="UTF-8" standalone="no"?>
<svg
   version="1.0"
   width="638.000000pt"
   height="654.000000pt"
   viewBox="0 0 638.000000 654.000000"
   preserveAspectRatio="xMidYMid meet"
   id="svg8"
   sodipodi:docname="Amazon-girl-with-a-bow-on-horseback-vector-19938215_edited.svg"
   inkscape:version="1.2.1 (9c6d41e410, 2022-07-14)"
   xmlns:inkscape="http://www.inkscape.org/namespaces/inkscape"
   xmlns:sodipodi="http://sodipodi.sourceforge.net/DTD/sodipodi-0.dtd"
   xmlns="http://www.w3.org/2000/svg"
   xmlns:svg="http://www.w3.org/2000/svg">
  <defs
     id="defs12" />
  <sodipodi:namedview
     id="namedview10"
     pagecolor="#ffffff"
     bordercolor="#000000"
     borderopacity="0.25"
     inkscape:showpageshadow="2"
     inkscape:pageopacity="0.0"
     inkscape:pagecheckerboard="0"
     inkscape:deskcolor="#d1d1d1"
     inkscape:document-units="pt"
     showgrid="false"
     inkscape:zoom="0.76549174"
     inkscape:cx="404.31527"
     inkscape:cy="373.61605"
     inkscape:window-width="1680"
     inkscape:window-height="1027"
     inkscape:window-x="-8"
     inkscape:window-y="-8"
     inkscape:window-maximized="1"
     inkscape:current-layer="svg8" />
  <g
     transform="translate(0.000000,654.000000) scale(0.100000,-0.100000)"
     fill="#000000"
     stroke="none"
     id="g6">
    <path
       d="M3557 6354 c-16 -9 -54 -18 -84 -20 -67 -6 -95 -19 -198 -97 -137 -103 -190 -119 -350 -102 -158 16 -312 -62 -346 -175 -10 -34 -9 -47 11 -99 12 -34 24 -82 25 -109 7 -104 21 -160 58 -222 39 -66 38 -90 -5 -90 -27 0 -99 -51 -146 -106 -41 -45 -55 -75 -88 -188 -10 -32 -30 -77 -46 -100 -16 -22 -39 -56 -51 -73 -12 -18 -25 -32 -29 -30 -15 5 -681 632 -705 663 -14 19 -32 34 -39 34 -19 0 -17 -9 11 -55 29 -46 32 -94 10 -155 -8 -23 -15 -54 -15 -69 0 -15 -13 -78 -30 -141 -51 -198 -62 -289 -65 -502 -2 -213 7 -288 45 -351 12 -21 21 -39 19 -41 -2 -2 -161 -97 -354 -211 -192 -114 -354 -212 -360 -217 -15 -16 2 -6 375 211 189 110 348 197 352 195 4 -3 8 -16 8 -30 0 -15 7 -27 18 -30 9 -3 26 -10 37 -15 11 -5 42 -13 69 -19 41 -9 51 -8 67 6 28 26 70 24 214 -7 72 -15 144 -30 160 -33 28 -5 419 -36 457 -36 14 0 16 -7 11 -35 -4 -26 -1 -41 12 -55 10 -11 16 -21 14 -23 -55 -38 -83 -67 -117 -119 -33 -51 -43 -77 -51 -136 -5 -40 -15 -81 -21 -90 -7 -9 2 -1 19 18 17 19 34 49 37 67 11 57 58 118 117 152 30 17 57 31 61 31 3 0 6 -15 6 -34 0 -28 -14 -50 -75 -121 -41 -48 -80 -102 -86 -120 -10 -26 -23 -37 -66 -55 -56 -23 -64 -34 -78 -100 l-7 -35 27 40 c15 22 35 45 44 52 16 12 71 18 71 8 0 -3 -17 -30 -37 -61 -30 -46 -38 -67 -41 -118 l-4 -61 -51 -30 c-57 -33 -97 -84 -97 -124 0 -25 1 -25 21 8 26 44 55 66 102 82 51 17 59 2 17 -29 -79 -60 -110 -98 -110 -135 l0 -36 76 77 75 77 60 -180 c39 -115 94 -250 154 -375 51 -107 103 -229 116 -270 12 -41 30 -93 40 -115 34 -74 20 -205 -31 -305 -52 -101 -67 -233 -30 -270 23 -23 27 -24 86 -9 33 9 53 23 83 58 49 59 56 73 76 151 10 40 27 76 44 95 16 17 32 39 36 50 7 17 9 15 17 -15 5 -19 15 -42 22 -50 20 -24 28 -50 36 -125 22 -199 32 -268 52 -357 l21 -98 -36 -78 c-32 -67 -37 -88 -37 -147 1 -83 20 -136 108 -293 34 -61 65 -131 71 -161 26 -124 105 -162 186 -91 11 10 45 25 76 34 31 8 67 25 82 36 32 25 35 25 40 -2 3 -17 5 -14 6 9 0 18 10 47 21 65 11 18 20 40 20 48 1 8 15 31 31 50 28 31 30 32 24 10 -4 -14 -23 -62 -42 -108 -28 -70 -33 -91 -27 -128 7 -47 24 -70 24 -32 0 54 51 173 95 221 l43 47 18 -52 18 -53 7 53 c11 88 19 122 29 122 8 0 25 -89 35 -191 5 -42 12 -61 30 -77 22 -19 29 -40 38 -117 2 -16 5 4 6 46 1 64 -2 81 -20 104 -16 19 -23 45 -26 88 -2 34 -13 107 -24 161 -19 99 -26 216 -11 216 4 0 21 -31 37 -68 27 -59 31 -81 36 -197 3 -71 7 -112 8 -90 1 22 6 49 11 60 8 19 9 19 9 -2 1 -11 21 -50 46 -85 24 -34 64 -103 88 -153 53 -108 82 -144 140 -175 62 -33 84 -24 163 69 58 68 74 81 113 91 65 16 116 52 147 106 24 40 26 52 21 107 -5 51 -41 193 -52 205 -8 9 -135 -82 -141 -101 -8 -25 -22 -37 -45 -37 -33 0 -43 80 -44 340 0 169 -6 285 -18 375 -25 192 -23 246 10 287 15 18 28 35 30 37 6 8 77 -80 115 -142 21 -33 57 -108 80 -166 41 -103 42 -109 45 -240 l3 -135 51 -105 c28 -58 71 -166 95 -239 40 -123 43 -140 42 -230 -2 -104 7 -136 54 -179 21 -20 29 -21 59 -13 49 14 189 73 189 79 0 3 -29 38 -64 78 -68 76 -76 94 -101 213 -13 60 -15 108 -10 235 9 195 -1 260 -57 372 -22 45 -39 92 -39 105 1 12 4 60 7 105 5 70 2 93 -21 165 -47 146 -54 209 -43 395 7 115 6 185 -1 228 -16 88 -17 85 37 68 26 -8 86 -16 134 -17 79 -1 89 1 112 23 14 14 26 35 26 47 0 52 -93 118 -230 163 -36 12 -71 25 -77 29 -7 5 -22 44 -33 88 -29 116 -100 253 -165 320 l-55 56 -75 235 c-41 130 -80 265 -85 301 -6 35 -17 79 -24 96 -13 31 -417 437 -468 470 -34 22 -36 36 -5 36 12 0 29 5 37 10 12 8 9 10 -11 10 -14 0 -60 23 -102 52 -58 39 -77 57 -77 74 0 17 6 23 27 26 45 5 37 25 -14 33 -35 5 -53 14 -72 37 -27 32 -77 80 -124 120 l-28 23 55 75 c45 61 67 81 118 107 84 43 88 42 88 -11 0 -25 5 -48 10 -51 6 -4 24 7 40 24 23 23 30 38 30 69 0 36 2 40 38 50 81 24 152 99 152 158 0 27 -68 84 -99 84 -24 0 -30 5 -35 31 -8 44 -8 49 7 49 7 0 34 67 65 163 44 135 53 174 52 232 0 90 -6 98 -50 75 l-35 -18 -37 34 c-21 18 -50 37 -65 40 -33 9 -163 -33 -275 -89 -63 -30 -94 -39 -165 -46 -74 -7 -105 -16 -200 -59 -113 -51 -233 -92 -270 -92 -28 0 -49 25 -28 34 10 3 15 18 15 42 0 31 3 35 18 29 46 -20 88 -34 102 -35 9 0 56 18 105 40 50 22 99 40 111 40 56 0 359 168 340 188 -3 2 -11 0 -18 -6 -28 -22 -129 -72 -146 -71 -9 0 -2 7 18 16 19 8 37 18 40 22 3 3 31 20 63 36 51 27 54 30 31 33 -17 2 -24 8 -20 17 4 11 -2 11 -30 -1 -28 -12 -39 -12 -57 -2 -12 7 -42 15 -67 18 l-45 6 53 12 c29 7 72 12 96 12 24 0 48 6 55 13 8 11 5 13 -18 9 -16 -2 -45 1 -64 7 -29 10 -42 9 -72 -4 -54 -22 -63 -19 -33 11 18 18 40 28 72 31 39 5 44 8 34 20 -8 10 -25 13 -50 11 -21 -2 -38 -2 -38 0 0 8 72 32 98 32 15 0 37 6 47 14 33 24 -83 0 -140 -29 l-50 -26 25 25 c14 14 57 37 95 50 68 24 69 25 30 25 -44 1 -108 -25 -159 -64 -33 -25 -56 -32 -56 -17 0 13 30 37 75 60 22 11 56 35 75 52 l35 32 -38 -26 c-55 -40 -105 -58 -125 -47 -14 8 -7 14 38 34 l55 24 -70 -5 c-39 -2 -87 -13 -107 -24 -21 -10 -38 -14 -38 -9 0 18 51 50 123 77 40 15 76 31 82 35 15 14 -7 10 -38 -7z m403 -785 c0 -6 -11 -42 -25 -80 -13 -38 -20 -69 -15 -69 16 0 12 -33 -10 -75 -11 -22 -20 -47 -20 -57 0 -10 -6 -18 -14 -18 -8 0 -17 -4 -20 -8 -8 -14 5 -52 19 -52 9 0 10 -11 4 -42 -11 -60 -11 -68 4 -68 16 0 44 29 48 51 3 12 10 14 37 7 19 -5 32 -14 30 -21 -3 -7 -68 -55 -145 -107 -77 -52 -159 -110 -182 -128 -22 -18 -45 -31 -51 -27 -5 3 -10 30 -10 58 0 29 -7 117 -15 197 -8 80 -18 187 -23 238 -9 104 -9 104 60 116 20 4 59 16 85 28 45 20 203 66 231 67 6 1 12 -4 12 -10z m-1968 -352 c170 -159 308 -291 308 -293 0 -17 -39 -58 -71 -74 l-38 -20 -3 23 c-3 20 -5 19 -24 -13 -11 -19 -36 -48 -55 -63 -84 -70 -202 -157 -211 -157 -21 0 -198 -125 -194 -137 3 -6 -6 -19 -20 -28 -24 -15 -26 -15 -63 14 -25 20 -45 28 -59 24 -35 -9 -48 43 -56 218 -7 154 -6 160 29 340 40 203 56 266 78 301 21 33 38 121 30 160 l-6 33 24 -20 c13 -11 162 -150 331 -308z m2198 28 c60 -31 22 -93 -91 -151 l-51 -25 7 43 c9 54 32 88 57 88 19 0 19 1 4 25 -9 13 -16 27 -16 30 0 11 62 4 90 -10z m-237 -40 c-7 -21 -13 -19 -13 6 0 11 4 18 10 14 5 -3 7 -12 3 -20z m36 -127 c-5 -18 -9 -34 -9 -35 0 -2 -35 -19 -77 -39 -63 -29 -92 -51 -150 -112 -51 -53 -76 -73 -83 -66 -7 7 8 27 51 65 90 78 263 218 271 219 4 0 2 -15 -3 -32z m-1279 -92 c0 -32 64 -140 113 -189 30 -31 52 -57 49 -57 -12 0 -76 42 -90 59 -11 14 -12 13 -3 -6 6 -12 23 -32 38 -44 17 -13 21 -20 10 -16 -10 4 -30 7 -43 7 -14 0 -26 6 -28 13 -2 6 -9 32 -16 56 -8 29 -29 62 -62 98 l-51 53 18 40 18 40 24 -22 c12 -12 23 -26 23 -32z m1320 9 c0 -19 -4 -35 -10 -35 -5 0 -10 16 -10 35 0 19 5 35 10 35 6 0 10 -16 10 -35z m-1445 -160 c-17 -44 -17 -95 1 -140 5 -14 -6 -8 -38 20 -25 22 -47 44 -47 48 -2 15 93 140 97 129 2 -7 -4 -32 -13 -57z m-33 -142 c78 -81 86 -98 56 -130 -12 -14 -42 -36 -65 -50 -66 -38 -51 -37 28 3 39 19 73 34 75 32 2 -3 -19 -21 -47 -42 -49 -38 -87 -91 -108 -151 -10 -28 -9 -28 21 10 54 68 144 155 159 155 8 0 22 -13 32 -29 l17 -29 -45 -56 c-25 -30 -56 -77 -69 -103 -23 -47 -41 -103 -32 -103 8 0 44 69 50 98 7 31 51 80 62 69 4 -4 -9 -43 -30 -86 -20 -44 -36 -85 -36 -92 0 -13 -71 -9 -330 17 -354 35 -454 57 -493 107 l-25 33 32 21 c57 38 131 71 342 152 115 44 217 83 228 87 16 6 15 8 -10 19 l-29 12 40 25 c22 15 54 40 70 56 17 16 35 30 40 31 6 1 36 -25 67 -56z m244 22 c10 -8 14 -15 8 -15 -5 0 -19 7 -30 15 -10 8 -14 15 -8 15 5 0 19 -7 30 -15z m882 -3059 c-9 -59 -9 -100 0 -161 7 -44 12 -94 12 -110 0 -15 3 -25 7 -22 3 4 7 62 8 129 2 126 10 159 58 223 14 18 15 17 27 -22 11 -35 9 -54 -14 -150 -14 -60 -26 -133 -26 -162 0 -45 -5 -59 -30 -88 -28 -31 -30 -39 -29 -106 l1 -72 12 58 c8 46 18 65 42 85 29 25 33 34 43 120 7 52 18 108 25 125 l13 32 17 -55 c9 -30 19 -97 22 -150 5 -78 3 -102 -11 -135 -9 -22 -21 -73 -26 -113 -5 -44 -17 -87 -29 -108 -24 -37 -40 -44 -40 -16 0 38 -38 137 -52 136 -31 -3 -126 -73 -130 -96 -3 -26 -36 -37 -49 -17 -4 7 -10 47 -14 89 -3 41 -10 112 -16 157 -10 79 -10 83 15 125 16 27 29 72 36 118 9 67 17 85 70 163 33 49 60 94 60 100 0 5 2 8 4 6 3 -2 0 -40 -6 -83z m600 -333 c10 -57 16 -103 13 -103 -8 0 -50 111 -67 175 -8 28 -13 79 -13 115 l1 65 24 -75 c13 -41 32 -121 42 -177z"
       id="path2"
       style="fill:#ff8080" />
  </g>
</svg>
